<?xml version="1.0" encoding="utf-8"?>
<!-- Generator: Adobe Illustrator 23.0.2, SVG Export Plug-In . SVG Version: 6.00 Build 0)  -->
<svg version="1.1" id="Capa_1" xmlns="http://www.w3.org/2000/svg" xmlns:xlink="http://www.w3.org/1999/xlink" x="0px" y="0px"
	 viewBox="0 0 1024 1024" style="enable-background:new 0 0 1024 1024;" xml:space="preserve">
<style type="text/css">
	.st0{fill:#408267;}
</style>
<g>
	<path class="st0" d="M531.1,970.4c-113.4,3.9-115.3-20.5-181.9-96.9c-87.2-99.8-176.1-216-207.1-346.6
		C86.5,292.6,253.8,64.5,494.7,53.6c183.3-8,347.7,115.2,388.2,294.1c42.9,189.9-63.2,353.7-180.1,494.4c-20.7,24.9-43.1,48.3-64,73
		C604.2,955.9,592.7,970,531.1,970.4z M494.3,134.5c-176.9,13.4-293.4,155.2-280.1,331.8c9.6,127.2,118.1,266.9,200.8,359.4
		l32.6,36.3c34.6,38.4,30.3,28.7,84.4,28.4c33.4-0.8,41.6-22.8,63.4-48.2l36.3-42.1c74-87.5,158.4-201.2,176.5-316.3
		C838,294,693,128.8,500.8,134.2C498.7,134.3,496.4,134.2,494.3,134.5z"/>
	<path class="st0" d="M512,579.4c-79.3,0-143.9-64.6-143.9-143.9S432.7,291.6,512,291.6s143.9,64.6,143.9,143.9
		S591.3,579.4,512,579.4z M512,348.6c-47.9,0-86.9,39-86.9,86.9s39,86.9,86.9,86.9s86.9-39,86.9-86.9S559.9,348.6,512,348.6z"/>
</g>
</svg>
