<?xml version="1.0" encoding="utf-8"?>
<!-- Generator: Adobe Illustrator 23.0.2, SVG Export Plug-In . SVG Version: 6.00 Build 0)  -->
<svg version="1.1" id="Capa_1" xmlns="http://www.w3.org/2000/svg" xmlns:xlink="http://www.w3.org/1999/xlink" x="0px" y="0px"
	 viewBox="0 0 1024 1024" style="enable-background:new 0 0 1024 1024;" xml:space="preserve">
<style type="text/css">
	.st0{fill:#408267;}
</style>
<g>
	<path class="st0" d="M256.2,172.5c1-24.2,6.3-42,33.3-46.4c31.4-1.8,42.5,18.7,41.8,47.2H645c15.7,0,31.5,0.6,47.2-0.7
		c0.2-13.5,0.6-25.4,10.6-35.6c27.9-28.4,64.6-6.3,64.5,36.6c16.5,0.2,32.7-1,49.1,2.1c50.5,9.3,93.1,52.2,104.3,101.9
		c5,22.1,3.6,46.7,3.4,69.2L924,724.2c0.1,55.3,2.9,92.1-39.6,135.4c-28.6,29.1-61.5,39.3-100.8,39.7l-504.1,0.1
		c-22.1,0-47.8,1.8-69.5-2.2c-61.5-11.3-108.8-67.2-110-129.9c-0.7-36.3-0.1-72.7-0.1-109V350c0-52.8-2.8-93.2,37.4-134.7
		C173.9,177.4,206.6,173.4,256.2,172.5z M341.6,245.8l-9.3,0.3c0.3,15.6,1.1,31.1-10.6,43.1c-14.6,14.9-39.1,15.9-53.9,0.8
		c-11-11.2-11.3-24.8-11.1-39.6l0.1-3.9c-21.5-1.8-43.2-0.4-60.4,14c-29.3,24.6-22.5,53.2-23.6,86.4l511,0.1h105.3
		c20.4,0,40.9-0.3,61.3,0.2c0.3-30,5.5-57.6-17.4-81.2c-17.9-18.4-41-22.1-65.4-20c0.2,16,1,31.1-10.9,43.4
		c-14,14.6-38.2,15.3-52.7,1.1c-12.8-12.5-12.3-28.6-11.8-44.9c-25.6-0.5-51.3-0.2-76.9-0.2H394.6C377,245.4,359.2,245,341.6,245.8z
		 M172.3,418.8c2.6,28.2,0.7,64.2,0.7,92.8v227.3c0,13.2-1,27.6,1.9,40.5c10.5,47,54.5,47.4,91.5,47.4h492.5
		c27.8,0,52.1,2.2,73.8-18.9c20.2-21.1,17.9-42.7,17.8-69.7v-228c0-30.1-0.4-60.2,0.1-90.3c-20.9-0.5-41.9-0.2-62.9-0.2H240.4
		C219.3,419.7,193,421.1,172.3,418.8z"/>
	<g>
		<path class="st0" d="M400.8,481.8c15.2-1.3,32.1,1.9,50.7,9.4c27.2,17.4,40.8,40.3,40.7,68.7c0.5,32.1-23.3,67.6-71.2,106.6
			c25.4-1.2,52.2-1.1,80.3,0.4c-0.3,30.1-3.1,55.9-8.4,77.3c-26.3-6.8-85.8-5.7-178.8,3.1c-8.7-24.3-12.7-48-12.2-71
			c58.2-36.6,91.5-65.4,99.8-86.6c2.9-5.8,4.4-10.9,4.3-15.4l-0.1-1.1c-0.3-14.2-8.1-20.4-23.3-18.5c-15.3,4.9-21,18.9-17,42.1
			c-9.3-0.8-33.1-3.5-71.5-7.9c-4.7-12-3.2-27.5,4.4-46.4C318.4,503.5,352.6,483.4,400.8,481.8z"/>
		<path class="st0" d="M728.5,481.6c1.2,23.7,0.7,49-1.4,75.7c-57.7,71.4-93.9,137.1-108.8,197.1c-28,0.6-58.9-1.9-92.7-7.6
			c8.8-26.5,17.3-49.3,25.5-68.4c19.2-38.9,42.3-76,69.3-111.2c-36.2,3.6-71,4.1-104.4,1.2c-1.1-25.5,1.1-52.9,6.4-82.2
			C586.6,487.8,655.3,486.3,728.5,481.6z"/>
	</g>
</g>
</svg>
