<?xml version="1.0" encoding="utf-8"?>
<!-- Generator: Adobe Illustrator 23.0.2, SVG Export Plug-In . SVG Version: 6.00 Build 0)  -->
<svg version="1.1" id="Capa_1" xmlns="http://www.w3.org/2000/svg" xmlns:xlink="http://www.w3.org/1999/xlink" x="0px" y="0px"
	 viewBox="0 0 1024 1024" style="enable-background:new 0 0 1024 1024;" xml:space="preserve">
<style type="text/css">
	.st0{fill:#408267;}
</style>
<g>
	<path class="st0" d="M660.7,903.1c-39.1,8-76.9-13.7-110.4-29.6l-98.3-46.7c-66.3-31.7-66.4-29.4-133.4,2.1l-83.5,39.8
		c-42.5,20.6-86.3,42.7-128.8,5C73.8,844.9,75.6,803,75.6,763.6l0-397.8c0-53.5-7.2-107,46.8-138.9c21.4-12.6,51.1-24.6,74.1-36
		l73.4-35.4c34.4-16.9,62.8-34.2,101.9-36.2c42.2-1.7,75.6,17.5,112.4,34.9l120,57.9c23.2,11.5,46.2,32.1,65.7,11.2
		c13.4-14.3,56.9-30.9,75.8-40.2l45-22.3c19.2-9.5,44.4-23.9,65.6-26.3c47.5-5.4,86.1,30.8,91.1,77.3c1.6,15.1,1.4,30.3,1.4,45.4
		l0,431.3c0,80-17.9,92.9-91.4,127.3c-19.4,9.1-38.6,18.6-57.8,27.9L734.3,876C710,888.2,688.3,900.2,660.7,903.1z M416.5,205.5
		c-1.7,19.6-1.2,39.3-1.2,58.9l0,417.8c0,16.7,0.4,33.5-0.3,50.2c44,10.8,99.7,41.9,140.9,61.7c15.3,7.3,40.2,17.1,53.1,26.5
		c0.9-33.2,0.2-66.5,0.2-99.7l0-337.2c0-28.6,0.8-57.5-0.3-86.1l-106.7-51.7C476.7,233.2,443.1,215,416.5,205.5z M335.4,207
		l-112.1,54c-15.8,7.6-60.9,25.6-72.1,36.4c-3.2,13.4-1.7,42.4-1.6,56.9l0,396.2c0,16.8-4.9,56.8,7.6,67.5
		c11.8,3.7,51.4-19.4,62.4-24.9c39-19.2,81.6-42.3,121.8-58.4l0-460.3C341.4,263,347,206.3,335.4,207z M863.7,210
		c-27,7-102.2,48.1-130.4,61.8c-16.3,7.9-32.5,17.8-49.8,23.3l-0.1,461.8c0,20.5,1,41.6-0.8,62l8.9-4.3l149.1-74.3
		c9.3-4.6,24.8-9.6,32-16.9c5.1-14.6,2.1-55.6,2-72.4l0-319.5c0-33.4,0.7-66.9,0-100.3C874.5,223.6,874.4,209.6,863.7,210z"/>
</g>
</svg>
