<?xml version="1.0" encoding="utf-8"?>
<!-- Generator: Adobe Illustrator 23.0.2, SVG Export Plug-In . SVG Version: 6.00 Build 0)  -->
<svg version="1.1" id="Capa_1" xmlns="http://www.w3.org/2000/svg" xmlns:xlink="http://www.w3.org/1999/xlink" x="0px" y="0px"
	 viewBox="0 0 1024 1024" style="enable-background:new 0 0 1024 1024;" xml:space="preserve">
<style type="text/css">
	.st0{fill:#FFFFFF;}
</style>
<g>
	<path class="st0" d="M379.3,833.6c-88.9-4.3-153.1,15.6-228-56.3c-70.5-67.6-63.4-139.1-63.4-226.1V324.9c0-30.1-1.3-60.1,5.5-89.7
		c19.8-85.3,92.6-149.8,180-158.7c51.4-5.3,115.4-1,168.2-1.7c37.9,0.7,76,0.1,113.9,0.1l170.2-0.2c116.3-1,210,93.4,210.5,209.3
		v306.1c0,29.2,1,59-5.8,87.7c-19.5,81.8-90,145.3-173.9,154.9c-15,1.7-30.3,1.2-45.5,1.2l-66.5-0.1c-28.3,25.5-54,67.2-82.4,96.2
		c-21.9,21.8-59.9,27.4-86.5,11.1C447.9,923.8,406.6,861.2,379.3,833.6z M290.1,151.6c-36,2.8-69.1,16.2-93.1,44
		c-36,41.9-32,85-32,136.4v241.7c0,21.8-1.2,45.6,0.5,67.1c4.9,61.3,53.9,110.5,115.1,115.7c11.5,1,23.3,0.5,34.9,0.5h50.4
		c50.1,0.1,57.8,9.5,87.7,46.1l36.2,43.7c7,8.4,13.8,17.7,21.6,25.4c8.9-8.3,16.4-18.3,24.2-27.7l34.4-42.3
		c14.4-17.9,28.1-36.4,51.6-42.5c14.4-3.5,29.5-2.5,44.3-2.5h45.6c38.1,0,68.4-1.9,99.7-26.9c49.9-39.9,48-84.3,48-140.2v-281
		c0-18.9,0.6-39.3-3.8-57.7c-12.3-50.5-56.6-92.2-108.7-98.3c-14.2-1.6-28.4-1.4-42.7-1.4H314C306.2,151.3,297.9,150.8,290.1,151.6z
		"/>
	<path class="st0" d="M422.9,496.1c27.7-24.9,53.2-52.6,79.3-79.1l130.7-132.3c21.2-21.2,35.4-35.5,67.6-37.3
		C771.6,245,809,334.3,759.8,386c-21.2,22.2-43.5,43.4-65.4,65.1L496,650.2c-25.9,25.9-39.9,45.7-80.3,46.4
		c-43.2,0.7-66.5-28-94.8-55.4c-17.3-16.5-34.8-33.4-51.5-50.5c-58.3-59.6-17.9-156.1,62.9-153.7
		C368.6,438.1,398.7,470.6,422.9,496.1z"/>
</g>
</svg>
