<?xml version="1.0" encoding="utf-8"?>
<!-- Generator: Adobe Illustrator 23.0.2, SVG Export Plug-In . SVG Version: 6.00 Build 0)  -->
<svg version="1.1" id="Capa_1" xmlns="http://www.w3.org/2000/svg" xmlns:xlink="http://www.w3.org/1999/xlink" x="0px" y="0px"
	 viewBox="0 0 1024 1024" style="enable-background:new 0 0 1024 1024;" xml:space="preserve">
<style type="text/css">
	.st0{fill:#408267;}
</style>
<g>
	<path class="st0" d="M307.5,282.6c0.7-14,1.4-27.8,4-41.6c14.4-77.7,82.1-157.1,160.2-174.9c10.5-2.4,21-3.3,31.7-4.3
		c119.9-4.7,211.5,107.7,212.9,222c9.9-1.3,19.1-0.4,29-0.5l66.5-0.8c47.7-0.5,47.4,41.2,53.9,76.4l54.9,294.3
		c6.3,33.7,12.5,67.5,19.3,101.1c4.7,23.3,13.9,59.3,13.9,81.9c0,59.1-42.5,110.2-99.8,122.9c-19.1,4.2-39.3,3.2-58.8,3.2H524H228.4
		c-19.5,0-40,0.9-59.2-3.2c-56.2-12.1-98.7-64.4-98.9-122c0-15.2,3.4-30,6.3-44.9L161,346.8c11.1-61.1,15.7-64.2,79.2-64.2
		L307.5,282.6z M508.9,139.5c-71.6,5.1-121.8,75.4-122.6,143.6c16.5-1.1,33.2-0.5,49.7-0.5h81.2c40.4,0,80.9,0.5,121.3-0.1
		C636.9,216.2,582.4,134.7,508.9,139.5z M291.3,363c-17,1.1-34.3,0.5-51.4,0.4c-12.4,72.3-26.4,144.3-40.2,216.3l-18.9,100
		c-7.7,39.3-15.3,78.6-22.3,118.1c-2.2,12.7-6.6,26.3-7.1,39.2c-1.7,42,38.2,45,67.8,44.9l561.1-0.1c32.8,0,85.5,7.1,91.9-38.3
		c1.7-12.3-5.4-39.9-8-53.1l-11.1-57.2l-59.5-316.1c-3.4-17.6-7.4-35.3-9.4-53.1c-22.4-0.9-45,0.3-67.4-0.8
		c0,10.8,0.2,21.6-0.2,32.3c17.7,30.2,21.7,64-13.8,85c-52.6,31.1-107.4-43.4-64.5-84.1c-0.4-10.9-0.2-21.8-0.7-32.8
		c-15.2-0.6-30.6-0.1-45.8-0.1H433.1c-15.3,0-30.7-0.4-46,0.5c0,10.7,0,21.5-0.2,32.3c20.5,20.5,18.5,55.5-1.6,75.6
		c-46.1,46.2-121.6-16.9-76.8-75.9c-0.7-11-0.6-22-0.6-33.1C302.4,362.8,296.9,362.8,291.3,363z"/>
	<path class="st0" d="M431.4,555.2v23.7c15.7-16.9,35.1-25.3,58.3-25.3c27.5,0,47.9,10.9,61.1,32.6c10.8-11.3,21.6-19.6,32.5-24.8
		c10.8-5.2,23.1-7.8,36.7-7.8c20.5,0,36.7,6.2,48.6,18.8c11.8,12.6,17.7,30.3,17.7,53.1v118.8h-91.8v-113c0-6.7-1.7-12-5-15.7
		s-7.6-5.6-13-5.6c-6,0-11.9,2-17.8,6.1v128.1h-91.8v-113c0-6.7-1.6-11.8-4.8-15.6c-3.2-3.8-7.6-5.7-13.1-5.7
		c-5.8,0-11.7,2.2-17.7,6.4v127.8h-97.1V554.9h97.2V555.2z"/>
</g>
</svg>
